<?xml version="1.0" encoding="UTF-8" standalone="no"?>
<!DOCTYPE svg PUBLIC "-//W3C//DTD SVG 1.1//EN"
 "http://www.w3.org/Graphics/SVG/1.1/DTD/svg11.dtd">
<!-- Generated by graphviz version 2.43.0 (0)
 -->
<!-- Title: %3 Pages: 1 -->
<svg width="613pt" height="66pt"
 viewBox="0.00 0.00 612.80 65.80" xmlns="http://www.w3.org/2000/svg" xmlns:xlink="http://www.w3.org/1999/xlink">
<g id="graph0" class="graph" transform="scale(1 1) rotate(0) translate(14.4 51.4)">
<title>%3</title>
<polygon fill="white" stroke="transparent" points="-14.4,14.4 -14.4,-51.4 598.4,-51.4 598.4,14.4 -14.4,14.4"/>
<!-- input -->
<g id="node1" class="node">
<title>input</title>
<polygon fill="none" stroke="black" points="0,-0.5 0,-36.5 142,-36.5 142,-0.5 0,-0.5"/>
<text text-anchor="middle" x="71" y="-14.8" font-family="Times,serif" font-size="14.00">Input Parameters</text>
</g>
<!-- sampler -->
<g id="node2" class="node">
<title>sampler</title>
<polygon fill="none" stroke="black" points="178,-0.5 178,-36.5 300,-36.5 300,-0.5 178,-0.5"/>
<text text-anchor="middle" x="239" y="-14.8" font-family="Times,serif" font-size="14.00">Noise Sampler</text>
</g>
<!-- input&#45;&gt;sampler -->
<g id="edge1" class="edge">
<title>input&#45;&gt;sampler</title>
<path fill="none" stroke="black" d="M142.4,-18.5C150.82,-18.5 159.41,-18.5 167.83,-18.5"/>
<polygon fill="black" stroke="black" points="167.98,-22 177.98,-18.5 167.98,-15 167.98,-22"/>
</g>
<!-- output -->
<g id="node3" class="node">
<title>output</title>
<polygon fill="none" stroke="black" points="336,-0.5 336,-36.5 584,-36.5 584,-0.5 336,-0.5"/>
<text text-anchor="middle" x="460" y="-14.8" font-family="Times,serif" font-size="14.00">Randomized Output (aka &#39;noise&#39;)</text>
</g>
<!-- sampler&#45;&gt;output -->
<g id="edge2" class="edge">
<title>sampler&#45;&gt;output</title>
<path fill="none" stroke="black" d="M300.13,-18.5C308.32,-18.5 316.97,-18.5 325.85,-18.5"/>
<polygon fill="black" stroke="black" points="325.94,-22 335.94,-18.5 325.94,-15 325.94,-22"/>
</g>
</g>
</svg>
