<?xml version="1.0" encoding="UTF-8" standalone="no"?>
<!DOCTYPE svg PUBLIC "-//W3C//DTD SVG 1.1//EN"
 "http://www.w3.org/Graphics/SVG/1.1/DTD/svg11.dtd">
<!-- Generated by graphviz version 2.43.0 (0)
 -->
<!-- Title: %3 Pages: 1 -->
<svg width="662pt" height="76pt"
 viewBox="0.00 0.00 661.80 75.80" xmlns="http://www.w3.org/2000/svg" xmlns:xlink="http://www.w3.org/1999/xlink">
<g id="graph0" class="graph" transform="scale(1 1) rotate(0) translate(14.4 61.4)">
<title>%3</title>
<polygon fill="white" stroke="transparent" points="-14.4,14.4 -14.4,-61.4 647.4,-61.4 647.4,14.4 -14.4,14.4"/>
<!-- input -->
<g id="node1" class="node">
<title>input</title>
<polygon fill="none" stroke="black" points="0,-0.5 0,-46.5 142,-46.5 142,-0.5 0,-0.5"/>
<text text-anchor="middle" x="71" y="-31.3" font-family="Times,serif" font-size="14.00">Input Parameters</text>
<polyline fill="none" stroke="black" points="0,-23.5 142,-23.5 "/>
<text text-anchor="middle" x="32" y="-8.3" font-family="Times,serif" font-size="14.00">Seed</text>
<polyline fill="none" stroke="black" points="64,-0.5 64,-23.5 "/>
<text text-anchor="middle" x="83.5" y="-8.3" font-family="Times,serif" font-size="14.00">X</text>
<polyline fill="none" stroke="black" points="103,-0.5 103,-23.5 "/>
<text text-anchor="middle" x="122.5" y="-8.3" font-family="Times,serif" font-size="14.00">Z</text>
</g>
<!-- sampler -->
<g id="node2" class="node">
<title>sampler</title>
<polygon fill="none" stroke="black" points="178,-5.5 178,-41.5 346,-41.5 346,-5.5 178,-5.5"/>
<text text-anchor="middle" x="262" y="-19.8" font-family="Times,serif" font-size="14.00">White Noise Sampler</text>
</g>
<!-- input&#45;&gt;sampler -->
<g id="edge1" class="edge">
<title>input&#45;&gt;sampler</title>
<path fill="none" stroke="black" d="M142.11,-23.5C150.49,-23.5 159.15,-23.5 167.79,-23.5"/>
<polygon fill="black" stroke="black" points="167.91,-27 177.91,-23.5 167.91,-20 167.91,-27"/>
</g>
<!-- output -->
<g id="node3" class="node">
<title>output</title>
<polygon fill="none" stroke="black" points="382,-0.5 382,-46.5 633,-46.5 633,-0.5 382,-0.5"/>
<text text-anchor="middle" x="507.5" y="-31.3" font-family="Times,serif" font-size="14.00">Output Noise</text>
<polyline fill="none" stroke="black" points="382,-23.5 633,-23.5 "/>
<text text-anchor="middle" x="507.5" y="-8.3" font-family="Times,serif" font-size="14.00">Displayed as a 2D grid of shades</text>
</g>
<!-- sampler&#45;&gt;output -->
<g id="edge2" class="edge">
<title>sampler&#45;&gt;output</title>
<path fill="none" stroke="black" d="M346.12,-23.5C354.44,-23.5 363.02,-23.5 371.7,-23.5"/>
<polygon fill="black" stroke="black" points="371.91,-27 381.91,-23.5 371.91,-20 371.91,-27"/>
</g>
</g>
</svg>
