<?xml version="1.0" encoding="UTF-8" standalone="no"?>
<!DOCTYPE svg PUBLIC "-//W3C//DTD SVG 1.1//EN"
 "http://www.w3.org/Graphics/SVG/1.1/DTD/svg11.dtd">
<!-- Generated by graphviz version 2.43.0 (0)
 -->
<!-- Title: %3 Pages: 1 -->
<svg width="453pt" height="330pt"
 viewBox="0.00 0.00 452.80 329.80" xmlns="http://www.w3.org/2000/svg" xmlns:xlink="http://www.w3.org/1999/xlink">
<g id="graph0" class="graph" transform="scale(1 1) rotate(0) translate(14.4 315.4)">
<title>%3</title>
<polygon fill="white" stroke="transparent" points="-14.4,14.4 -14.4,-315.4 438.4,-315.4 438.4,14.4 -14.4,14.4"/>
<!-- input -->
<g id="node1" class="node">
<title>input</title>
<polygon fill="none" stroke="black" points="86,-231.5 86,-300.5 338,-300.5 338,-231.5 86,-231.5"/>
<text text-anchor="middle" x="157" y="-262.3" font-family="Times,serif" font-size="14.00">Input Parameters</text>
<polyline fill="none" stroke="black" points="228,-231.5 228,-300.5 "/>
<text text-anchor="middle" x="283" y="-285.3" font-family="Times,serif" font-size="14.00">World Seed</text>
<polyline fill="none" stroke="black" points="228,-277.5 338,-277.5 "/>
<text text-anchor="middle" x="283" y="-262.3" font-family="Times,serif" font-size="14.00">X Coordinate</text>
<polyline fill="none" stroke="black" points="228,-254.5 338,-254.5 "/>
<text text-anchor="middle" x="283" y="-239.3" font-family="Times,serif" font-size="14.00">Y Coordinate</text>
</g>
<!-- sampler -->
<g id="node2" class="node">
<title>sampler</title>
<polygon fill="none" stroke="black" points="128,-158.5 128,-194.5 296,-194.5 296,-158.5 128,-158.5"/>
<text text-anchor="middle" x="212" y="-172.8" font-family="Times,serif" font-size="14.00">White Noise Sampler</text>
</g>
<!-- input&#45;&gt;sampler -->
<g id="edge1" class="edge">
<title>input&#45;&gt;sampler</title>
<path fill="none" stroke="black" d="M212,-231.42C212,-222.61 212,-213.22 212,-204.78"/>
<polygon fill="black" stroke="black" points="215.5,-204.72 212,-194.72 208.5,-204.72 215.5,-204.72"/>
</g>
<!-- output -->
<g id="node3" class="node">
<title>output</title>
<polygon fill="none" stroke="black" points="132.5,-75.5 132.5,-121.5 291.5,-121.5 291.5,-75.5 132.5,-75.5"/>
<text text-anchor="middle" x="212" y="-106.3" font-family="Times,serif" font-size="14.00">Randomized Output</text>
<polyline fill="none" stroke="black" points="132.5,-98.5 291.5,-98.5 "/>
<text text-anchor="middle" x="212" y="-83.3" font-family="Times,serif" font-size="14.00">A value from &#45;1 to 1</text>
</g>
<!-- sampler&#45;&gt;output -->
<g id="edge2" class="edge">
<title>sampler&#45;&gt;output</title>
<path fill="none" stroke="black" d="M212,-158.25C212,-150.36 212,-140.75 212,-131.6"/>
<polygon fill="black" stroke="black" points="215.5,-131.59 212,-121.59 208.5,-131.59 215.5,-131.59"/>
</g>
<!-- thresholdfunction -->
<g id="node4" class="node">
<title>thresholdfunction</title>
<polygon fill="none" stroke="black" points="0,-0.5 0,-38.5 424,-38.5 424,-0.5 0,-0.5"/>
<text text-anchor="middle" x="77.5" y="-15.8" font-family="Times,serif" font-size="14.00">Threshold Function</text>
<polyline fill="none" stroke="black" points="155,-0.5 155,-38.5 "/>
<text text-anchor="middle" x="289.5" y="-23.3" font-family="Times,serif" font-size="14.00">If below the threshold, place grass.</text>
<text text-anchor="middle" x="289.5" y="-8.3" font-family="Times,serif" font-size="14.00">(Displayed as a green pixel)</text>
</g>
<!-- output&#45;&gt;thresholdfunction -->
<g id="edge3" class="edge">
<title>output&#45;&gt;thresholdfunction</title>
<path fill="none" stroke="black" d="M212,-75.23C212,-66.96 212,-57.46 212,-48.72"/>
<polygon fill="black" stroke="black" points="215.5,-48.58 212,-38.58 208.5,-48.58 215.5,-48.58"/>
</g>
</g>
</svg>
