<?xml version="1.0" encoding="UTF-8" standalone="no"?>
<!DOCTYPE svg PUBLIC "-//W3C//DTD SVG 1.1//EN"
 "http://www.w3.org/Graphics/SVG/1.1/DTD/svg11.dtd">
<!-- Generated by graphviz version 2.43.0 (0)
 -->
<!-- Title: %3 Pages: 1 -->
<svg width="188pt" height="252pt"
 viewBox="0.00 0.00 187.80 251.80" xmlns="http://www.w3.org/2000/svg" xmlns:xlink="http://www.w3.org/1999/xlink">
<g id="graph0" class="graph" transform="scale(1 1) rotate(0) translate(14.4 237.4)">
<title>%3</title>
<polygon fill="white" stroke="transparent" points="-14.4,14.4 -14.4,-237.4 173.4,-237.4 173.4,14.4 -14.4,14.4"/>
<!-- input -->
<g id="node1" class="node">
<title>input</title>
<polygon fill="none" stroke="black" points="14.5,-176.5 14.5,-222.5 144.5,-222.5 144.5,-176.5 14.5,-176.5"/>
<text text-anchor="middle" x="42" y="-195.8" font-family="Times,serif" font-size="14.00">Input</text>
<polyline fill="none" stroke="black" points="69.5,-176.5 69.5,-222.5 "/>
<text text-anchor="middle" x="107" y="-207.3" font-family="Times,serif" font-size="14.00">Seed</text>
<polyline fill="none" stroke="black" points="69.5,-199.5 144.5,-199.5 "/>
<text text-anchor="middle" x="107" y="-184.3" font-family="Times,serif" font-size="14.00">Number</text>
</g>
<!-- sampler -->
<g id="node2" class="node">
<title>sampler</title>
<polygon fill="none" stroke="black" points="13,-88.5 13,-124.5 146,-124.5 146,-88.5 13,-88.5"/>
<text text-anchor="middle" x="79.5" y="-102.8" font-family="Times,serif" font-size="14.00">Noise Algorithm</text>
</g>
<!-- input&#45;&gt;sampler -->
<g id="edge1" class="edge">
<title>input&#45;&gt;sampler</title>
<path fill="none" stroke="black" d="M79.5,-176.47C79.5,-163.94 79.5,-148.13 79.5,-134.81"/>
<polygon fill="black" stroke="black" points="83,-134.77 79.5,-124.77 76,-134.77 83,-134.77"/>
<text text-anchor="middle" x="114" y="-146.8" font-family="Times,serif" font-size="14.00">Passed to</text>
</g>
<!-- output -->
<g id="node3" class="node">
<title>output</title>
<polygon fill="none" stroke="black" points="0,-0.5 0,-36.5 159,-36.5 159,-0.5 0,-0.5"/>
<text text-anchor="middle" x="79.5" y="-14.8" font-family="Times,serif" font-size="14.00">Randomized Output</text>
</g>
<!-- sampler&#45;&gt;output -->
<g id="edge2" class="edge">
<title>sampler&#45;&gt;output</title>
<path fill="none" stroke="black" d="M79.5,-88.1C79.5,-76.25 79.5,-60.32 79.5,-46.79"/>
<polygon fill="black" stroke="black" points="83,-46.58 79.5,-36.58 76,-46.58 83,-46.58"/>
<text text-anchor="middle" x="113" y="-58.8" font-family="Times,serif" font-size="14.00">Produces</text>
</g>
</g>
</svg>
