<?xml version="1.0" encoding="UTF-8" standalone="no"?>
<!DOCTYPE svg PUBLIC "-//W3C//DTD SVG 1.1//EN"
 "http://www.w3.org/Graphics/SVG/1.1/DTD/svg11.dtd">
<!-- Generated by graphviz version 2.43.0 (0)
 -->
<!-- Title: %3 Pages: 1 -->
<svg width="208pt" height="246pt"
 viewBox="0.00 0.00 207.80 245.80" xmlns="http://www.w3.org/2000/svg" xmlns:xlink="http://www.w3.org/1999/xlink">
<g id="graph0" class="graph" transform="scale(1 1) rotate(0) translate(14.4 231.4)">
<title>%3</title>
<polygon fill="white" stroke="transparent" points="-14.4,14.4 -14.4,-231.4 193.4,-231.4 193.4,14.4 -14.4,14.4"/>
<!-- input -->
<g id="node1" class="node">
<title>input</title>
<polygon fill="none" stroke="black" points="9.5,-178.5 9.5,-216.5 169.5,-216.5 169.5,-178.5 9.5,-178.5"/>
<text text-anchor="middle" x="89.5" y="-201.3" font-family="Times,serif" font-size="14.00">Input</text>
<text text-anchor="middle" x="89.5" y="-186.3" font-family="Times,serif" font-size="14.00">(Number from 1&#45;10)</text>
</g>
<!-- sampler -->
<g id="node2" class="node">
<title>sampler</title>
<polygon fill="none" stroke="black" points="0,-90.5 0,-126.5 179,-126.5 179,-90.5 0,-90.5"/>
<text text-anchor="middle" x="89.5" y="-104.8" font-family="Times,serif" font-size="14.00">White Noise Algorithm</text>
</g>
<!-- input&#45;&gt;sampler -->
<g id="edge1" class="edge">
<title>input&#45;&gt;sampler</title>
<path fill="none" stroke="black" d="M89.5,-178.47C89.5,-166.46 89.5,-150.43 89.5,-136.86"/>
<polygon fill="black" stroke="black" points="93,-136.62 89.5,-126.62 86,-136.62 93,-136.62"/>
<text text-anchor="middle" x="124" y="-148.8" font-family="Times,serif" font-size="14.00">Passed to</text>
</g>
<!-- output -->
<g id="node3" class="node">
<title>output</title>
<polygon fill="none" stroke="black" points="7.5,-0.5 7.5,-38.5 171.5,-38.5 171.5,-0.5 7.5,-0.5"/>
<text text-anchor="middle" x="89.5" y="-23.3" font-family="Times,serif" font-size="14.00">Randomized Output</text>
<text text-anchor="middle" x="89.5" y="-8.3" font-family="Times,serif" font-size="14.00">(within range [&#45;1, 1])</text>
</g>
<!-- sampler&#45;&gt;output -->
<g id="edge2" class="edge">
<title>sampler&#45;&gt;output</title>
<path fill="none" stroke="black" d="M89.5,-90.31C89.5,-78.51 89.5,-62.57 89.5,-48.9"/>
<polygon fill="black" stroke="black" points="93,-48.55 89.5,-38.55 86,-48.55 93,-48.55"/>
<text text-anchor="middle" x="123" y="-60.8" font-family="Times,serif" font-size="14.00">Produces</text>
</g>
</g>
</svg>
