<?xml version="1.0" encoding="UTF-8" standalone="no"?>
<!DOCTYPE svg PUBLIC "-//W3C//DTD SVG 1.1//EN"
 "http://www.w3.org/Graphics/SVG/1.1/DTD/svg11.dtd">
<!-- Generated by graphviz version 2.43.0 (0)
 -->
<!-- Title: %3 Pages: 1 -->
<svg width="582pt" height="76pt"
 viewBox="0.00 0.00 581.80 75.80" xmlns="http://www.w3.org/2000/svg" xmlns:xlink="http://www.w3.org/1999/xlink">
<g id="graph0" class="graph" transform="scale(1 1) rotate(0) translate(14.4 61.4)">
<title>%3</title>
<polygon fill="white" stroke="transparent" points="-14.4,14.4 -14.4,-61.4 567.4,-61.4 567.4,14.4 -14.4,14.4"/>
<!-- input -->
<g id="node1" class="node">
<title>input</title>
<polygon fill="none" stroke="black" points="0,-0.5 0,-46.5 149,-46.5 149,-0.5 0,-0.5"/>
<text text-anchor="middle" x="74.5" y="-31.3" font-family="Times,serif" font-size="14.00">Input Parameters</text>
<polyline fill="none" stroke="black" points="0,-23.5 149,-23.5 "/>
<text text-anchor="middle" x="74.5" y="-8.3" font-family="Times,serif" font-size="14.00">Number from 1&#45;10</text>
</g>
<!-- sampler -->
<g id="node2" class="node">
<title>sampler</title>
<polygon fill="none" stroke="black" points="185,-5.5 185,-41.5 353,-41.5 353,-5.5 185,-5.5"/>
<text text-anchor="middle" x="269" y="-19.8" font-family="Times,serif" font-size="14.00">White Noise Sampler</text>
</g>
<!-- input&#45;&gt;sampler -->
<g id="edge1" class="edge">
<title>input&#45;&gt;sampler</title>
<path fill="none" stroke="black" d="M149.1,-23.5C157.49,-23.5 166.13,-23.5 174.73,-23.5"/>
<polygon fill="black" stroke="black" points="174.8,-27 184.8,-23.5 174.8,-20 174.8,-27"/>
</g>
<!-- output -->
<g id="node3" class="node">
<title>output</title>
<polygon fill="none" stroke="black" points="389,-4.5 389,-42.5 553,-42.5 553,-4.5 389,-4.5"/>
<text text-anchor="middle" x="471" y="-27.3" font-family="Times,serif" font-size="14.00">Randomized Output</text>
<text text-anchor="middle" x="471" y="-12.3" font-family="Times,serif" font-size="14.00">(within range [&#45;1, 1])</text>
</g>
<!-- sampler&#45;&gt;output -->
<g id="edge2" class="edge">
<title>sampler&#45;&gt;output</title>
<path fill="none" stroke="black" d="M353.08,-23.5C361.57,-23.5 370.22,-23.5 378.78,-23.5"/>
<polygon fill="black" stroke="black" points="378.79,-27 388.79,-23.5 378.79,-20 378.79,-27"/>
</g>
</g>
</svg>
