<?xml version="1.0" encoding="UTF-8" standalone="no"?>
<!DOCTYPE svg PUBLIC "-//W3C//DTD SVG 1.1//EN"
 "http://www.w3.org/Graphics/SVG/1.1/DTD/svg11.dtd">
<!-- Generated by graphviz version 2.43.0 (0)
 -->
<!-- Title: %3 Pages: 1 -->
<svg width="532pt" height="76pt"
 viewBox="0.00 0.00 531.80 75.80" xmlns="http://www.w3.org/2000/svg" xmlns:xlink="http://www.w3.org/1999/xlink">
<g id="graph0" class="graph" transform="scale(1 1) rotate(0) translate(14.4 61.4)">
<title>%3</title>
<polygon fill="white" stroke="transparent" points="-14.4,14.4 -14.4,-61.4 517.4,-61.4 517.4,14.4 -14.4,14.4"/>
<!-- input -->
<g id="node1" class="node">
<title>input</title>
<polygon fill="none" stroke="black" points="0,-0.5 0,-46.5 150,-46.5 150,-0.5 0,-0.5"/>
<text text-anchor="middle" x="75" y="-31.3" font-family="Times,serif" font-size="14.00">Input Parameters</text>
<polyline fill="none" stroke="black" points="0,-23.5 150,-23.5 "/>
<text text-anchor="middle" x="26" y="-8.3" font-family="Times,serif" font-size="14.00">Seed</text>
<polyline fill="none" stroke="black" points="52,-0.5 52,-23.5 "/>
<text text-anchor="middle" x="101" y="-8.3" font-family="Times,serif" font-size="14.00">Input Value</text>
</g>
<!-- sampler -->
<g id="node2" class="node">
<title>sampler</title>
<polygon fill="none" stroke="black" points="186,-5.5 186,-41.5 308,-41.5 308,-5.5 186,-5.5"/>
<text text-anchor="middle" x="247" y="-19.8" font-family="Times,serif" font-size="14.00">Noise Sampler</text>
</g>
<!-- input&#45;&gt;sampler -->
<g id="edge1" class="edge">
<title>input&#45;&gt;sampler</title>
<path fill="none" stroke="black" d="M150.07,-23.5C158.59,-23.5 167.27,-23.5 175.74,-23.5"/>
<polygon fill="black" stroke="black" points="175.95,-27 185.95,-23.5 175.95,-20 175.95,-27"/>
</g>
<!-- output -->
<g id="node3" class="node">
<title>output</title>
<polygon fill="none" stroke="black" points="344,-5.5 344,-41.5 503,-41.5 503,-5.5 344,-5.5"/>
<text text-anchor="middle" x="423.5" y="-19.8" font-family="Times,serif" font-size="14.00">Randomized Output</text>
</g>
<!-- sampler&#45;&gt;output -->
<g id="edge2" class="edge">
<title>sampler&#45;&gt;output</title>
<path fill="none" stroke="black" d="M308.05,-23.5C316.34,-23.5 325,-23.5 333.67,-23.5"/>
<polygon fill="black" stroke="black" points="333.85,-27 343.85,-23.5 333.85,-20 333.85,-27"/>
</g>
</g>
</svg>
