<?xml version="1.0" encoding="UTF-8" standalone="no"?>
<!DOCTYPE svg PUBLIC "-//W3C//DTD SVG 1.1//EN"
 "http://www.w3.org/Graphics/SVG/1.1/DTD/svg11.dtd">
<!-- Generated by graphviz version 2.43.0 (0)
 -->
<!-- Title: %3 Pages: 1 -->
<svg width="788pt" height="66pt"
 viewBox="0.00 0.00 787.80 65.80" xmlns="http://www.w3.org/2000/svg" xmlns:xlink="http://www.w3.org/1999/xlink">
<g id="graph0" class="graph" transform="scale(1 1) rotate(0) translate(14.4 51.4)">
<title>%3</title>
<polygon fill="white" stroke="transparent" points="-14.4,14.4 -14.4,-51.4 773.4,-51.4 773.4,14.4 -14.4,14.4"/>
<!-- input -->
<g id="node1" class="node">
<title>input</title>
<polygon fill="none" stroke="black" points="0,-0.5 0,-36.5 128,-36.5 128,-0.5 0,-0.5"/>
<text text-anchor="middle" x="64" y="-14.8" font-family="Times,serif" font-size="14.00">2D Coordinates</text>
</g>
<!-- sampler -->
<g id="node2" class="node">
<title>sampler</title>
<polygon fill="none" stroke="black" points="164,-0.5 164,-36.5 303,-36.5 303,-0.5 164,-0.5"/>
<text text-anchor="middle" x="233.5" y="-14.8" font-family="Times,serif" font-size="14.00">1) Retrieve Color</text>
</g>
<!-- input&#45;&gt;sampler -->
<g id="edge1" class="edge">
<title>input&#45;&gt;sampler</title>
<path fill="none" stroke="black" d="M128.32,-18.5C136.56,-18.5 145.07,-18.5 153.52,-18.5"/>
<polygon fill="black" stroke="black" points="153.77,-22 163.77,-18.5 153.77,-15 153.77,-22"/>
</g>
<!-- converter -->
<g id="node3" class="node">
<title>converter</title>
<polygon fill="none" stroke="black" points="339,-0.5 339,-36.5 474,-36.5 474,-0.5 339,-0.5"/>
<text text-anchor="middle" x="406.5" y="-14.8" font-family="Times,serif" font-size="14.00">2) Convert Color</text>
</g>
<!-- sampler&#45;&gt;converter -->
<g id="edge2" class="edge">
<title>sampler&#45;&gt;converter</title>
<path fill="none" stroke="black" d="M303.07,-18.5C311.55,-18.5 320.26,-18.5 328.85,-18.5"/>
<polygon fill="black" stroke="black" points="328.86,-22 338.86,-18.5 328.86,-15 328.86,-22"/>
</g>
<!-- output -->
<g id="node4" class="node">
<title>output</title>
<polygon fill="none" stroke="black" points="510,-0.5 510,-36.5 759,-36.5 759,-0.5 510,-0.5"/>
<text text-anchor="middle" x="634.5" y="-14.8" font-family="Times,serif" font-size="14.00">Output (e.g biome, height value)</text>
</g>
<!-- converter&#45;&gt;output -->
<g id="edge3" class="edge">
<title>converter&#45;&gt;output</title>
<path fill="none" stroke="black" d="M474.09,-18.5C482.23,-18.5 490.76,-18.5 499.46,-18.5"/>
<polygon fill="black" stroke="black" points="499.74,-22 509.74,-18.5 499.74,-15 499.74,-22"/>
</g>
</g>
</svg>
