<?xml version="1.0" encoding="UTF-8" standalone="no"?>
<!DOCTYPE svg PUBLIC "-//W3C//DTD SVG 1.1//EN"
 "http://www.w3.org/Graphics/SVG/1.1/DTD/svg11.dtd">
<!-- Generated by graphviz version 2.43.0 (0)
 -->
<!-- Title: %3 Pages: 1 -->
<svg width="537pt" height="295pt"
 viewBox="0.00 0.00 536.80 294.80" xmlns="http://www.w3.org/2000/svg" xmlns:xlink="http://www.w3.org/1999/xlink">
<g id="graph0" class="graph" transform="scale(1 1) rotate(0) translate(14.4 280.4)">
<title>%3</title>
<polygon fill="white" stroke="transparent" points="-14.4,14.4 -14.4,-280.4 522.4,-280.4 522.4,14.4 -14.4,14.4"/>
<!-- input -->
<g id="node1" class="node">
<title>input</title>
<polygon fill="none" stroke="black" points="0,-219.5 0,-265.5 272,-265.5 272,-219.5 0,-219.5"/>
<text text-anchor="middle" x="136" y="-250.3" font-family="Times,serif" font-size="14.00">Inputs</text>
<polyline fill="none" stroke="black" points="0,-242.5 272,-242.5 "/>
<text text-anchor="middle" x="26" y="-227.3" font-family="Times,serif" font-size="14.00">Seed</text>
<polyline fill="none" stroke="black" points="52,-219.5 52,-242.5 "/>
<text text-anchor="middle" x="107" y="-227.3" font-family="Times,serif" font-size="14.00">X Coordinate</text>
<polyline fill="none" stroke="black" points="162,-219.5 162,-242.5 "/>
<text text-anchor="middle" x="217" y="-227.3" font-family="Times,serif" font-size="14.00">Z Coordinate</text>
</g>
<!-- sampler -->
<g id="node3" class="node">
<title>sampler</title>
<polygon fill="none" stroke="black" points="127.5,-73.5 127.5,-109.5 260.5,-109.5 260.5,-73.5 127.5,-73.5"/>
<text text-anchor="middle" x="194" y="-87.8" font-family="Times,serif" font-size="14.00">Noise Algorithm</text>
</g>
<!-- input&#45;&gt;sampler -->
<g id="edge2" class="edge">
<title>input:s&#45;&gt;sampler</title>
<path fill="none" stroke="black" d="M26,-219C26,-166.06 79.9,-132.5 126.65,-113.36"/>
<polygon fill="black" stroke="black" points="128.16,-116.53 136.18,-109.61 125.6,-110.01 128.16,-116.53"/>
</g>
<!-- transform -->
<g id="node5" class="node">
<title>transform</title>
<polygon fill="none" stroke="black" points="135,-146.5 135,-182.5 371,-182.5 371,-146.5 135,-146.5"/>
<text text-anchor="middle" x="194" y="-160.8" font-family="Times,serif" font-size="14.00">X * Frequency</text>
<polyline fill="none" stroke="black" points="253,-146.5 253,-182.5 "/>
<text text-anchor="middle" x="312" y="-160.8" font-family="Times,serif" font-size="14.00">Z * Frequency</text>
</g>
<!-- input&#45;&gt;transform -->
<g id="edge5" class="edge">
<title>input:x&#45;&gt;transform:x</title>
<path fill="none" stroke="black" d="M107,-219C107,-195.98 106.98,-172.65 123.66,-166.22"/>
<polygon fill="black" stroke="black" points="124.71,-169.6 134,-164.5 123.56,-162.69 124.71,-169.6"/>
</g>
<!-- input&#45;&gt;transform -->
<g id="edge7" class="edge">
<title>input:z&#45;&gt;transform:z</title>
<path fill="none" stroke="black" d="M217,-219C217,-177.9 295.7,-219.2 309.84,-192.91"/>
<polygon fill="black" stroke="black" points="313.29,-193.52 312,-183 306.45,-192.02 313.29,-193.52"/>
</g>
<!-- samplerparams -->
<g id="node2" class="node">
<title>samplerparams</title>
<polygon fill="none" stroke="black" points="344,-219.5 344,-265.5 508,-265.5 508,-219.5 344,-219.5"/>
<text text-anchor="middle" x="426" y="-250.3" font-family="Times,serif" font-size="14.00">Sampler Parameters</text>
<polyline fill="none" stroke="black" points="344,-242.5 508,-242.5 "/>
<text text-anchor="middle" x="426" y="-227.3" font-family="Times,serif" font-size="14.00">Frequency</text>
</g>
<!-- samplerparams&#45;&gt;transform -->
<g id="edge3" class="edge">
<title>samplerparams:f&#45;&gt;transform:x</title>
<path fill="none" stroke="black" d="M343,-230.5C326.63,-230.5 323.58,-224.02 308,-219 260.98,-203.85 202.86,-231.68 194.91,-192.97"/>
<polygon fill="black" stroke="black" points="198.4,-192.64 194,-183 191.43,-193.28 198.4,-192.64"/>
</g>
<!-- samplerparams&#45;&gt;transform -->
<g id="edge4" class="edge">
<title>samplerparams:f&#45;&gt;transform:z</title>
<path fill="none" stroke="black" d="M343,-230.5C337.87,-230.5 342.17,-223.79 344,-219 351.14,-200.32 364.17,-201.8 371,-183 371.97,-180.34 373.36,-177.32 374.44,-174.51"/>
<polygon fill="black" stroke="black" points="377.77,-173.39 372,-164.5 370.97,-175.04 377.77,-173.39"/>
</g>
<!-- output -->
<g id="node4" class="node">
<title>output</title>
<polygon fill="none" stroke="black" points="114.5,-0.5 114.5,-36.5 273.5,-36.5 273.5,-0.5 114.5,-0.5"/>
<text text-anchor="middle" x="194" y="-14.8" font-family="Times,serif" font-size="14.00">Randomized Output</text>
</g>
<!-- sampler&#45;&gt;output -->
<g id="edge1" class="edge">
<title>sampler&#45;&gt;output</title>
<path fill="none" stroke="black" d="M194,-73.31C194,-65.29 194,-55.55 194,-46.57"/>
<polygon fill="black" stroke="black" points="197.5,-46.53 194,-36.53 190.5,-46.53 197.5,-46.53"/>
</g>
<!-- transform&#45;&gt;sampler -->
<g id="edge6" class="edge">
<title>transform:x&#45;&gt;sampler</title>
<path fill="none" stroke="black" d="M194,-146C194,-137.51 194,-128.26 194,-119.88"/>
<polygon fill="black" stroke="black" points="197.5,-119.85 194,-109.85 190.5,-119.85 197.5,-119.85"/>
</g>
<!-- transform&#45;&gt;sampler -->
<g id="edge8" class="edge">
<title>transform:z&#45;&gt;sampler</title>
<path fill="none" stroke="black" d="M312,-146C312,-122.97 293.13,-109.81 270.48,-102.3"/>
<polygon fill="black" stroke="black" points="271.17,-98.85 260.59,-99.41 269.21,-105.57 271.17,-98.85"/>
</g>
</g>
</svg>
