<?xml version="1.0" encoding="UTF-8" standalone="no"?>
<!DOCTYPE svg PUBLIC "-//W3C//DTD SVG 1.1//EN"
 "http://www.w3.org/Graphics/SVG/1.1/DTD/svg11.dtd">
<!-- Generated by graphviz version 2.43.0 (0)
 -->
<!-- Title: %3 Pages: 1 -->
<svg width="403pt" height="66pt"
 viewBox="0.00 0.00 402.80 65.80" xmlns="http://www.w3.org/2000/svg" xmlns:xlink="http://www.w3.org/1999/xlink">
<g id="graph0" class="graph" transform="scale(1 1) rotate(0) translate(14.4 51.4)">
<title>%3</title>
<polygon fill="white" stroke="transparent" points="-14.4,14.4 -14.4,-51.4 388.4,-51.4 388.4,14.4 -14.4,14.4"/>
<!-- input -->
<g id="node1" class="node">
<title>input</title>
<polygon fill="none" stroke="black" points="0,-0.5 0,-36.5 128,-36.5 128,-0.5 0,-0.5"/>
<text text-anchor="middle" x="64" y="-14.8" font-family="Times,serif" font-size="14.00">2D Coordinates</text>
</g>
<!-- sampler -->
<g id="node2" class="node">
<title>sampler</title>
<polygon fill="none" stroke="black" points="164,-0.5 164,-36.5 283,-36.5 283,-0.5 164,-0.5"/>
<text text-anchor="middle" x="223.5" y="-14.8" font-family="Times,serif" font-size="14.00">Color Sampler</text>
</g>
<!-- input&#45;&gt;sampler -->
<g id="edge1" class="edge">
<title>input&#45;&gt;sampler</title>
<path fill="none" stroke="black" d="M128.15,-18.5C136.55,-18.5 145.19,-18.5 153.68,-18.5"/>
<polygon fill="black" stroke="black" points="153.93,-22 163.93,-18.5 153.93,-15 153.93,-22"/>
</g>
<!-- output -->
<g id="node3" class="node">
<title>output</title>
<polygon fill="none" stroke="black" points="319,-0.5 319,-36.5 374,-36.5 374,-0.5 319,-0.5"/>
<text text-anchor="middle" x="346.5" y="-14.8" font-family="Times,serif" font-size="14.00">Color</text>
</g>
<!-- sampler&#45;&gt;output -->
<g id="edge2" class="edge">
<title>sampler&#45;&gt;output</title>
<path fill="none" stroke="black" d="M283.23,-18.5C291.94,-18.5 300.69,-18.5 308.78,-18.5"/>
<polygon fill="black" stroke="black" points="308.96,-22 318.96,-18.5 308.96,-15 308.96,-22"/>
</g>
</g>
</svg>
