<?xml version="1.0" encoding="UTF-8" standalone="no"?>
<!DOCTYPE svg PUBLIC "-//W3C//DTD SVG 1.1//EN"
 "http://www.w3.org/Graphics/SVG/1.1/DTD/svg11.dtd">
<!-- Generated by graphviz version 2.43.0 (0)
 -->
<!-- Title: %3 Pages: 1 -->
<svg width="334pt" height="390pt"
 viewBox="0.00 0.00 333.80 389.80" xmlns="http://www.w3.org/2000/svg" xmlns:xlink="http://www.w3.org/1999/xlink">
<g id="graph0" class="graph" transform="scale(1 1) rotate(0) translate(14.4 375.4)">
<title>%3</title>
<polygon fill="white" stroke="transparent" points="-14.4,14.4 -14.4,-375.4 319.4,-375.4 319.4,14.4 -14.4,14.4"/>
<!-- input -->
<g id="node1" class="node">
<title>input</title>
<polygon fill="none" stroke="black" points="70,-291.5 70,-360.5 235,-360.5 235,-291.5 70,-291.5"/>
<text text-anchor="middle" x="97.5" y="-322.3" font-family="Times,serif" font-size="14.00">Input</text>
<polyline fill="none" stroke="black" points="125,-291.5 125,-360.5 "/>
<text text-anchor="middle" x="180" y="-345.3" font-family="Times,serif" font-size="14.00">World Seed</text>
<polyline fill="none" stroke="black" points="125,-337.5 235,-337.5 "/>
<text text-anchor="middle" x="180" y="-322.3" font-family="Times,serif" font-size="14.00">X Coordinate</text>
<polyline fill="none" stroke="black" points="125,-314.5 235,-314.5 "/>
<text text-anchor="middle" x="180" y="-299.3" font-family="Times,serif" font-size="14.00">Y Coordinate</text>
</g>
<!-- sampler -->
<g id="node2" class="node">
<title>sampler</title>
<polygon fill="none" stroke="black" points="68.5,-203.5 68.5,-239.5 236.5,-239.5 236.5,-203.5 68.5,-203.5"/>
<text text-anchor="middle" x="152.5" y="-217.8" font-family="Times,serif" font-size="14.00">White Noise Sampler</text>
</g>
<!-- input&#45;&gt;sampler -->
<g id="edge1" class="edge">
<title>input&#45;&gt;sampler</title>
<path fill="none" stroke="black" d="M152.5,-291.44C152.5,-277.94 152.5,-262.57 152.5,-249.77"/>
<polygon fill="black" stroke="black" points="156,-249.73 152.5,-239.73 149,-249.73 156,-249.73"/>
<text text-anchor="middle" x="187" y="-261.8" font-family="Times,serif" font-size="14.00">Passed to</text>
</g>
<!-- output -->
<g id="node3" class="node">
<title>output</title>
<polygon fill="none" stroke="black" points="73,-105.5 73,-151.5 232,-151.5 232,-105.5 73,-105.5"/>
<text text-anchor="middle" x="152.5" y="-136.3" font-family="Times,serif" font-size="14.00">Randomized Output</text>
<polyline fill="none" stroke="black" points="73,-128.5 232,-128.5 "/>
<text text-anchor="middle" x="152.5" y="-113.3" font-family="Times,serif" font-size="14.00">A value from &#45;1 to 1</text>
</g>
<!-- sampler&#45;&gt;output -->
<g id="edge2" class="edge">
<title>sampler&#45;&gt;output</title>
<path fill="none" stroke="black" d="M152.5,-203.38C152.5,-191.73 152.5,-175.95 152.5,-161.96"/>
<polygon fill="black" stroke="black" points="156,-161.71 152.5,-151.71 149,-161.71 156,-161.71"/>
<text text-anchor="middle" x="186" y="-173.8" font-family="Times,serif" font-size="14.00">Produces</text>
</g>
<!-- thresholdfunction -->
<g id="node4" class="node">
<title>thresholdfunction</title>
<polygon fill="none" stroke="black" points="0,-0.5 0,-53.5 305,-53.5 305,-0.5 0,-0.5"/>
<text text-anchor="middle" x="152.5" y="-38.3" font-family="Times,serif" font-size="14.00">Threshold Function</text>
<text text-anchor="middle" x="152.5" y="-23.3" font-family="Times,serif" font-size="14.00">If below the threshold (&lt;0), place grass.</text>
<text text-anchor="middle" x="152.5" y="-8.3" font-family="Times,serif" font-size="14.00">(Displayed as a green pixel)</text>
</g>
<!-- output&#45;&gt;thresholdfunction -->
<g id="edge3" class="edge">
<title>output&#45;&gt;thresholdfunction</title>
<path fill="none" stroke="black" d="M152.5,-105.42C152.5,-93.19 152.5,-77.69 152.5,-63.78"/>
<polygon fill="black" stroke="black" points="156,-63.53 152.5,-53.53 149,-63.53 156,-63.53"/>
<text text-anchor="middle" x="187" y="-75.8" font-family="Times,serif" font-size="14.00">Passed to</text>
</g>
</g>
</svg>
