<?xml version="1.0" encoding="UTF-8" standalone="no"?>
<!DOCTYPE svg PUBLIC "-//W3C//DTD SVG 1.1//EN"
 "http://www.w3.org/Graphics/SVG/1.1/DTD/svg11.dtd">
<!-- Generated by graphviz version 2.43.0 (0)
 -->
<!-- Title: %3 Pages: 1 -->
<svg width="290pt" height="277pt"
 viewBox="0.00 0.00 289.80 276.80" xmlns="http://www.w3.org/2000/svg" xmlns:xlink="http://www.w3.org/1999/xlink">
<g id="graph0" class="graph" transform="scale(1 1) rotate(0) translate(14.4 262.4)">
<title>%3</title>
<polygon fill="white" stroke="transparent" points="-14.4,14.4 -14.4,-262.4 275.4,-262.4 275.4,14.4 -14.4,14.4"/>
<!-- input -->
<g id="node1" class="node">
<title>input</title>
<polygon fill="none" stroke="black" points="13,-178.5 13,-247.5 248,-247.5 248,-178.5 13,-178.5"/>
<text text-anchor="middle" x="44" y="-209.3" font-family="Times,serif" font-size="14.00">Inputs</text>
<polyline fill="none" stroke="black" points="75,-178.5 75,-247.5 "/>
<text text-anchor="middle" x="161.5" y="-232.3" font-family="Times,serif" font-size="14.00">Seed</text>
<polyline fill="none" stroke="black" points="75,-224.5 248,-224.5 "/>
<text text-anchor="middle" x="161.5" y="-209.3" font-family="Times,serif" font-size="14.00">X Coordinates (1 to 3)</text>
<polyline fill="none" stroke="black" points="75,-201.5 248,-201.5 "/>
<text text-anchor="middle" x="161.5" y="-186.3" font-family="Times,serif" font-size="14.00">Z Coordinates (1 to 3)</text>
</g>
<!-- sampler -->
<g id="node2" class="node">
<title>sampler</title>
<polygon fill="none" stroke="black" points="34,-90.5 34,-126.5 227,-126.5 227,-90.5 34,-90.5"/>
<text text-anchor="middle" x="130.5" y="-104.8" font-family="Times,serif" font-size="14.00">2D White Noise Sampler</text>
</g>
<!-- input&#45;&gt;sampler -->
<g id="edge1" class="edge">
<title>input&#45;&gt;sampler</title>
<path fill="none" stroke="black" d="M130.5,-178.44C130.5,-164.94 130.5,-149.57 130.5,-136.77"/>
<polygon fill="black" stroke="black" points="134,-136.73 130.5,-126.73 127,-136.73 134,-136.73"/>
<text text-anchor="middle" x="165" y="-148.8" font-family="Times,serif" font-size="14.00">Passed to</text>
</g>
<!-- output -->
<g id="node3" class="node">
<title>output</title>
<polygon fill="none" stroke="black" points="0,-0.5 0,-38.5 261,-38.5 261,-0.5 0,-0.5"/>
<text text-anchor="middle" x="130.5" y="-23.3" font-family="Times,serif" font-size="14.00">Output Noise</text>
<text text-anchor="middle" x="130.5" y="-8.3" font-family="Times,serif" font-size="14.00">(Displayed as a 2D grid of shades)</text>
</g>
<!-- sampler&#45;&gt;output -->
<g id="edge2" class="edge">
<title>sampler&#45;&gt;output</title>
<path fill="none" stroke="black" d="M130.5,-90.31C130.5,-78.51 130.5,-62.57 130.5,-48.9"/>
<polygon fill="black" stroke="black" points="134,-48.55 130.5,-38.55 127,-48.55 134,-48.55"/>
<text text-anchor="middle" x="164" y="-60.8" font-family="Times,serif" font-size="14.00">Produces</text>
</g>
</g>
</svg>
