<?xml version="1.0" encoding="UTF-8" standalone="no"?>
<!DOCTYPE svg PUBLIC "-//W3C//DTD SVG 1.1//EN"
 "http://www.w3.org/Graphics/SVG/1.1/DTD/svg11.dtd">
<!-- Generated by graphviz version 2.43.0 (0)
 -->
<!-- Title: %3 Pages: 1 -->
<svg width="273pt" height="248pt"
 viewBox="0.00 0.00 272.80 247.80" xmlns="http://www.w3.org/2000/svg" xmlns:xlink="http://www.w3.org/1999/xlink">
<g id="graph0" class="graph" transform="scale(1 1) rotate(0) translate(14.4 233.4)">
<title>%3</title>
<polygon fill="white" stroke="transparent" points="-14.4,14.4 -14.4,-233.4 258.4,-233.4 258.4,14.4 -14.4,14.4"/>
<!-- input -->
<g id="node1" class="node">
<title>input</title>
<polygon fill="none" stroke="black" points="85,-180.5 85,-218.5 159,-218.5 159,-180.5 85,-180.5"/>
<text text-anchor="middle" x="122" y="-203.3" font-family="Times,serif" font-size="14.00">Input</text>
<text text-anchor="middle" x="122" y="-188.3" font-family="Times,serif" font-size="14.00">Position</text>
</g>
<!-- sampler -->
<g id="node2" class="node">
<title>sampler</title>
<polygon fill="none" stroke="black" points="26.5,-90.5 26.5,-128.5 217.5,-128.5 217.5,-90.5 26.5,-90.5"/>
<text text-anchor="middle" x="122" y="-113.3" font-family="Times,serif" font-size="14.00">Noise Sampler</text>
<text text-anchor="middle" x="122" y="-98.3" font-family="Times,serif" font-size="14.00">(Uses a noise algorithm)</text>
</g>
<!-- input&#45;&gt;sampler -->
<g id="edge1" class="edge">
<title>input&#45;&gt;sampler</title>
<path fill="none" stroke="black" d="M122,-180.27C122,-168.35 122,-152.54 122,-138.98"/>
<polygon fill="black" stroke="black" points="125.5,-138.71 122,-128.71 118.5,-138.71 125.5,-138.71"/>
<text text-anchor="middle" x="156.5" y="-150.8" font-family="Times,serif" font-size="14.00">Passed to</text>
</g>
<!-- output -->
<g id="node3" class="node">
<title>output</title>
<polygon fill="none" stroke="black" points="0,-0.5 0,-38.5 244,-38.5 244,-0.5 0,-0.5"/>
<text text-anchor="middle" x="122" y="-23.3" font-family="Times,serif" font-size="14.00">Sample</text>
<text text-anchor="middle" x="122" y="-8.3" font-family="Times,serif" font-size="14.00">(Randomized value for position)</text>
</g>
<!-- sampler&#45;&gt;output -->
<g id="edge2" class="edge">
<title>sampler&#45;&gt;output</title>
<path fill="none" stroke="black" d="M122,-90.27C122,-78.35 122,-62.54 122,-48.98"/>
<polygon fill="black" stroke="black" points="125.5,-48.71 122,-38.71 118.5,-48.71 125.5,-48.71"/>
<text text-anchor="middle" x="155.5" y="-60.8" font-family="Times,serif" font-size="14.00">Produces</text>
</g>
</g>
</svg>
